<svg width="118" height="20" viewBox="0 0 118 20" fill="none" xmlns="http://www.w3.org/2000/svg">
<path d="M89.4197 0.645487L84.7258 7.29386L81.407 0.645487H74.8883L73.2091 16.8317L68.1449 0.511719H61.9436L52.0864 19.5673H58.7637L59.9867 17.0256H66.5318L67.259 19.5673H72.9116H74.0421H79.0269L79.9988 10.19L83.6019 16.9186H83.7077L88.7057 10.19L87.7339 19.5673H93.9616L95.9185 0.645487H89.4197ZM62.0362 12.5377L64.2245 7.94265L65.4608 12.5377H62.0362ZM54.6185 8.45767H45.8785L46.1297 6.0498H55.5374L56.0994 0.645487H40.4441L38.7649 16.8584L33.6941 0.511719H27.4928L18.3429 18.1961L15.4406 13.1329C17.8273 12.0226 19.4404 10.103 19.7247 7.34737L19.7313 7.29386C19.9296 5.34751 19.4933 3.94293 18.4884 2.80588C17.3182 1.48156 15.2952 0.645487 11.9764 0.645487H2.83972L0.882812 19.5673H7.13698L7.69894 14.163H9.0344L12.0028 19.5673H17.6421H19.1363H24.3194L25.5425 17.0256H32.0876L32.8148 19.5673H38.4806H39.6045H44.7348L45.376 13.3737H54.116L54.6185 8.45767ZM13.4573 7.74869L13.4507 7.80888C13.3317 8.97268 12.3532 9.64822 10.8525 9.64822H8.15511L8.53856 5.94279H11.2624C12.7102 5.94279 13.5829 6.53807 13.4573 7.74869ZM27.5788 12.5377L29.7671 7.94265L31.0033 12.5377H27.5788ZM115.183 0.658867C116.407 0.658867 117.365 1.71565 117.259 2.94633L116.645 10.0495C116.539 11.2936 115.507 12.25 114.271 12.25H110.371H106.159L105.948 14.678H116.043L115.62 19.5539H98.8274L99.634 10.2167C99.7398 9.00613 100.745 8.07642 101.941 8.07642H106.311H110.126L110.324 5.7622H100.209L100.652 0.658867H115.183Z" fill="white"/>
</svg>
